<svg xmlns="http://www.w3.org/2000/svg" viewBox="0 0 520 520" role="img" aria-labelledby="title desc">
  <title id="title">Cactus Trading</title>
  <desc id="desc">Logo verde con velas de trading formando un cactus.</desc>
  <defs>
    <linearGradient id="center" x1="170" x2="350" y1="80" y2="360" gradientUnits="userSpaceOnUse">
      <stop stop-color="#1f9a49"/>
      <stop offset="1" stop-color="#07562c"/>
    </linearGradient>
    <linearGradient id="side" x1="90" x2="390" y1="150" y2="365" gradientUnits="userSpaceOnUse">
      <stop stop-color="#75b84d"/>
      <stop offset="1" stop-color="#2e7f28"/>
    </linearGradient>
    <filter id="shadow" x="-20%" y="-20%" width="140%" height="140%">
      <feDropShadow dx="0" dy="8" stdDeviation="8" flood-color="#042718" flood-opacity=".24"/>
    </filter>
  </defs>
  <rect width="520" height="520" rx="96" fill="#f8fbf7"/>
  <g filter="url(#shadow)">
    <path d="M196 292c-32 0-54-13-70-34-9-12-15-27-19-42" fill="none" stroke="url(#side)" stroke-linecap="round" stroke-width="33"/>
    <path d="M324 310c35 0 58-13 74-35 9-13 15-30 17-49" fill="none" stroke="url(#side)" stroke-linecap="round" stroke-width="33"/>
    <rect x="221" y="105" width="78" height="235" rx="14" fill="url(#center)" stroke="#096633" stroke-width="8"/>
    <path d="M260 62v43M260 340v33" stroke="#0a6937" stroke-linecap="round" stroke-width="9"/>
    <rect x="126" y="192" width="54" height="97" rx="13" fill="url(#side)" stroke="#3b8f35" stroke-width="7"/>
    <path d="M153 160v32M153 289v34" stroke="#3c8f35" stroke-linecap="round" stroke-width="7"/>
    <rect x="374" y="176" width="58" height="115" rx="13" fill="url(#side)" stroke="#3b8f35" stroke-width="7"/>
    <path d="M403 135v41M403 291v38" stroke="#3c8f35" stroke-linecap="round" stroke-width="7"/>
    <path d="M168 355c62-12 124-12 186 0" fill="none" stroke="#07351f" stroke-linecap="round" stroke-width="7"/>
    <path d="M226 333l-11 24h18v-24zM287 333l11 24h-18v-24z" fill="#07351f"/>
  </g>
  <text x="260" y="433" fill="#062417" font-family="Inter, Segoe UI, Arial, sans-serif" font-size="62" font-weight="700" letter-spacing="20" text-anchor="middle">CACTUS</text>
  <g fill="#3f8434">
    <rect x="113" y="468" width="62" height="4" rx="2"/>
    <rect x="345" y="468" width="62" height="4" rx="2"/>
    <text x="260" y="480" font-family="Inter, Segoe UI, Arial, sans-serif" font-size="24" font-weight="700" letter-spacing="16" text-anchor="middle">TRADING</text>
  </g>
</svg>
